<?xml version="1.0" encoding="UTF-8"?>
<svg width="300" height="300" version="1.1" viewBox="0 0 300 300" xmlns="http://www.w3.org/2000/svg">
 <rect width="300" height="300" fill="#f5f5f5"/>
 <g transform="matrix(1.3333 0 0 -1.3333 150 150)">
  <path d="m0 0" fill="none" stroke="#ccc" stroke-width="2"/>
 </g>
 <g fill="#999">
  <path d="m150 80c-11.046 0-20 8.954-20 20s8.954 20 20 20 20-8.954 20-20-8.954-20-20-20zm0 30c-5.523 0-10-4.477-10-10s4.477-10 10-10 10 4.477 10 10-4.477 10-10 10z"/>
  <path d="m185 155h-70c-2.761 0-5-2.239-5-5v-50c0-2.761 2.239-5 5-5h70c2.761 0 5 2.239 5 5v50c0 2.761-2.239 5-5 5zm-65-10h60v-40h-60z"/>
  <path d="m160 135-10-10-25 25h60l-25-25z"/>
 </g>
 <text x="150" y="200" text-anchor="middle" font-family="Arial" font-size="16" fill="#666">Изображение отсутствует</text>
</svg> 